<?xml version="1.0" standalone="no"?>
<!DOCTYPE svg PUBLIC "-//W3C//DTD SVG 20010904//EN"
 "http://www.w3.org/TR/2001/REC-SVG-20010904/DTD/svg10.dtd">
<svg version="1.0" xmlns="http://www.w3.org/2000/svg"
 width="200.000000pt" height="200.000000pt" viewBox="0 0 200.000000 200.000000"
 preserveAspectRatio="xMidYMid meet">
<metadata>
Created by potrace 1.14, written by Peter Selinger 2001-2017
</metadata>
<g transform="translate(0.000000,200.000000) scale(0.100000,-0.100000)"
fill="#000000" stroke="none">
<path d="M1226 1794 c-130 -47 -224 -156 -227 -262 l-1 -27 -13 31 c-17 38
-74 89 -122 109 -45 19 -43 20 -43 -12 0 -120 100 -214 210 -198 146 22 222
117 246 310 3 28 8 53 11 58 6 11 -17 7 -61 -9z"/>
<path d="M603 1415 c-141 -51 -257 -183 -292 -330 -40 -171 -5 -356 110 -586
84 -168 154 -255 234 -290 68 -30 111 -27 206 17 110 50 166 52 262 7 108 -51
150 -55 223 -24 81 36 148 120 236 296 144 287 162 529 54 710 -118 197 -331
271 -539 187 -43 -18 -87 -32 -97 -32 -10 0 -54 14 -97 31 -105 42 -210 47
-300 14z"/>
</g>
</svg>
